<?xml version="1.0" standalone="no"?>
<!DOCTYPE svg PUBLIC "-//W3C//DTD SVG 20010904//EN"
 "http://www.w3.org/TR/2001/REC-SVG-20010904/DTD/svg10.dtd">
<svg version="1.0" xmlns="http://www.w3.org/2000/svg"
 width="151.000000pt" height="151.000000pt" viewBox="0 0 151.000000 151.000000"
 preserveAspectRatio="xMidYMid meet">
<metadata>
Created by potrace 1.14, written by Peter Selinger 2001-2017
</metadata>
<g transform="translate(0.000000,151.000000) scale(0.100000,-0.100000)"
fill="#000000" stroke="none">
<path d="M40 1226 c0 -13 5 -48 10 -77 6 -30 13 -69 15 -87 2 -18 11 -76 20
-130 9 -53 18 -110 21 -127 2 -16 9 -52 14 -80 5 -27 12 -68 15 -90 5 -44 10
-74 25 -150 6 -27 12 -70 15 -95 3 -24 7 -45 8 -46 1 -2 35 -4 75 -5 67 -2 96
6 97 29 2 21 18 88 23 97 4 5 7 12 7 15 3 36 30 130 37 130 5 0 7 4 4 8 -5 9
13 92 24 107 4 6 6 18 5 28 -2 9 1 17 6 17 4 0 6 7 3 15 -4 8 -1 15 4 15 6 0
9 9 7 20 -2 11 0 20 4 20 7 0 32 -91 36 -130 0 -9 5 -22 10 -30 5 -8 10 -21
11 -30 2 -13 40 -155 60 -225 4 -11 8 -35 11 -52 l5 -33 84 0 c46 0 84 1 84 3
1 1 3 20 6 42 3 22 8 47 11 55 3 8 7 31 8 50 2 19 6 46 9 60 4 14 8 39 10 55
5 32 7 45 27 165 6 41 12 81 12 88 0 6 4 12 9 12 5 0 6 4 3 10 -3 5 -1 36 4
67 6 32 13 75 17 97 3 21 8 48 10 60 2 11 7 44 10 71 3 28 7 55 8 60 0 6 -28
11 -65 13 l-67 3 -11 -63 c-6 -35 -13 -76 -16 -93 -3 -16 -12 -73 -21 -125 -8
-52 -17 -107 -20 -122 -2 -16 -7 -43 -10 -60 -3 -18 -11 -67 -18 -108 -6 -41
-15 -70 -18 -65 -3 6 -34 115 -69 243 l-63 233 -65 -3 -65 -3 -17 -60 c-10
-33 -39 -140 -65 -237 -41 -156 -60 -208 -61 -165 0 15 -11 93 -19 132 -3 17
-7 39 -9 50 -1 11 -8 52 -14 90 -7 39 -14 81 -16 95 -2 14 -6 39 -9 55 -3 17
-8 46 -11 65 -3 19 -10 59 -16 88 l-10 52 -65 0 c-61 0 -64 -1 -64 -24z"/>
<path d="M1020 796 l0 -455 38 -3 c20 -2 123 -2 229 0 l192 3 -2 54 -2 55
-157 0 c-157 0 -158 0 -159 23 0 12 -1 191 -2 397 l-2 375 -67 3 -68 3 0 -455z"/>
<path d="M675 321 c-3 -5 -2 -12 3 -15 5 -3 9 1 9 9 0 17 -3 19 -12 6z"/>
<path d="M1395 321 c-3 -5 -2 -12 3 -15 5 -3 9 1 9 9 0 17 -3 19 -12 6z"/>
</g>
</svg>
