<svg width="297" height="103" viewBox="0 0 297 103" fill="none" xmlns="http://www.w3.org/2000/svg">
<g clip-path="url(#clip0_242_96)">
<path d="M276.081 38.9092C274.693 37.2868 272.399 36.3782 269.358 36.3977C262.698 36.4399 259.307 39.7805 257.729 46.2134C257.681 46.4032 257.638 46.5915 257.599 46.778L276.081 38.9092ZM264.663 64.1137C259.991 64.1137 256.192 62.8271 253.266 60.2539C250.341 57.6808 248.877 54.2428 248.877 49.9401C248.877 44.4563 250.999 39.6572 255.239 35.5443C259.48 31.4298 264.527 29.3742 270.379 29.3742C275.005 29.3742 278.759 30.6933 281.639 33.3297C283.896 35.3951 285.269 37.9715 285.758 41.0606L285.897 41.3461L257.98 53.2321C259.133 55.6333 261.701 57.0691 265.889 57.1567C270.928 57.2622 273.198 55.7387 274.829 52.6658L285.449 48.1441C283.35 57.0788 275.019 64.1169 264.664 64.1169L264.663 64.1137ZM240.834 63.1646H231.988L235.118 44.8765C235.254 43.9907 235.322 43.1892 235.322 42.4721C235.322 38.8443 233.485 37.0305 229.811 37.0305C225.094 37.0305 222.213 40.152 221.169 46.3951L218.312 63.1646H209.4L212.367 45.7316C214.897 30.8701 222.879 29.0514 233.145 29.6257C239.691 29.9924 244.576 32.9371 244.576 39.5615C244.576 40.5739 244.485 41.6495 244.304 42.7885L240.834 63.1646ZM200.828 63.1646H192.052L197.095 33.5374C197.407 31.7073 199.071 30.385 201.063 30.385H201.704C202.921 30.385 203.968 30.8344 204.758 31.6959C205.548 32.5558 205.862 33.5893 205.672 34.7071L200.828 63.1662V63.1646ZM203.856 23.8044H203.623C202.407 23.8044 201.358 23.355 200.568 22.4951C199.778 21.6352 199.464 20.6034 199.652 19.4855L199.748 18.9225C200.059 17.0908 201.725 15.7669 203.717 15.7669H203.95C205.166 15.7669 206.215 16.2163 207.005 17.0762C207.795 17.9361 208.109 18.9679 207.919 20.0858L207.823 20.6488C207.513 22.4805 205.847 23.8044 203.855 23.8044H203.856ZM184.363 63.1646H175.45L183.215 17.5905C183.527 15.7604 185.191 14.4381 187.183 14.4381H187.96C189.177 14.4381 190.226 14.8875 191.014 15.749C191.804 16.6089 192.118 17.6424 191.928 18.7603L184.363 63.1646ZM135.376 36.8406H130.34L125.918 63.1646H117.072L121.496 36.8406H117.685L118.841 30.385H122.651L123.898 22.8001C124.2 20.9619 125.871 19.6283 127.87 19.6283H128.585C129.799 19.6283 130.843 20.0744 131.635 20.9311C132.425 21.7861 132.741 22.8147 132.557 23.931L131.495 30.3866H136.529L135.373 36.8423L135.376 36.8406ZM108.434 63.1646H99.658L104.701 33.5374C105.013 31.7073 106.677 30.385 108.67 30.385H109.31C110.527 30.385 111.574 30.8344 112.364 31.6959C113.154 32.5558 113.468 33.5893 113.278 34.7071L108.434 63.1662V63.1646ZM111.462 23.8044H111.229C110.013 23.8044 108.964 23.355 108.174 22.4951C107.384 21.6352 107.07 20.6034 107.258 19.4855L107.354 18.9225C107.665 17.0908 109.331 15.7669 111.323 15.7669H111.557C112.772 15.7669 113.821 16.2163 114.611 17.0762C115.401 17.9361 115.715 18.9679 115.525 20.0858L115.429 20.6488C115.119 22.4805 113.453 23.8044 111.461 23.8044H111.462ZM92.0367 63.1646H83.1926L86.254 45.1296C86.4354 44.0751 86.5261 43.147 86.5261 42.3455C86.5261 38.8005 84.78 37.0305 81.2877 37.0305C76.6162 37.0305 73.7589 40.152 72.7157 46.3951L69.8584 63.1646H60.9463L68.7106 17.5905C69.0228 15.7604 70.687 14.4381 72.6791 14.4381H73.4501C74.6677 14.4381 75.7161 14.8875 76.5063 15.749C77.2965 16.6106 77.6088 17.644 77.4169 18.7635L74.8265 33.8651C77.2756 31.0388 80.5865 29.6257 84.7591 29.6257C92.1065 29.6257 95.7819 32.9598 95.7819 39.6247C95.7819 40.5949 95.6912 41.6284 95.5098 42.7252L92.0384 63.1646H92.0367ZM164.281 38.9092C162.893 37.2868 160.599 36.3782 157.558 36.3977C150.898 36.4399 147.507 39.7805 145.928 46.2134C145.881 46.4032 145.837 46.5915 145.799 46.778L164.281 38.9092ZM152.862 64.1137C148.191 64.1137 144.391 62.8271 141.466 60.2539C138.541 57.6808 137.077 54.2428 137.077 49.9401C137.077 44.4563 139.198 39.6572 143.439 35.5443C147.68 31.4298 152.726 29.3742 158.579 29.3742C163.205 29.3742 166.959 30.6933 169.839 33.3297C172.096 35.3951 173.469 37.9715 173.957 41.0606L174.097 41.3461L146.179 53.2321C147.332 55.6333 149.9 57.0691 154.089 57.1567C159.128 57.2622 161.398 55.7387 163.029 52.6658L173.648 48.1441C171.55 57.0788 163.219 64.1169 152.864 64.1169L152.862 64.1137ZM294.106 34.5757C264.46 13.0493 260.197 33.5877 220.126 12.8319C199.635 2.21797 187.422 6.78349 171.384 16.093C146.703 30.4207 162.629 4.40663 143.943 24.5799C143.404 25.164 142.485 25.2727 141.806 24.833C141.129 24.395 140.917 23.561 141.313 22.8894C153.843 1.4603 152.011 22.6703 168.14 11.9331C187.921 -1.23618 206.168 -5.72707 229.372 10.0186C250.73 24.5118 274.129 9.84664 296.283 32.3903C296.847 32.963 296.847 33.8359 296.282 34.4102C295.713 34.9878 294.769 35.0592 294.106 34.5774V34.5757ZM60.1997 22.7693L40.9973 63.0802H32.2892L29.636 31.1865L16.0279 63.0802H7.18384L1.74654 21.7082C1.60176 20.6066 1.93668 19.6088 2.7269 18.7781C3.51711 17.9474 4.54282 17.5175 5.73599 17.5175H7.524C9.6103 17.5175 11.339 18.9874 11.5257 20.9214L14.3272 50.044L27.2654 19.87C27.8881 18.4196 29.3185 17.5175 30.9966 17.5175H31.9787C34.079 17.5175 35.8164 19.0101 35.9839 20.957L38.4784 50.044L51.68 19.8473C52.308 18.4098 53.7332 17.5175 55.4008 17.5175H56.5242C57.9232 17.5175 59.1286 18.1243 59.8926 19.2162C60.6567 20.3081 60.7648 21.5768 60.1979 22.7677L60.1997 22.7693Z" fill="#03B8F1"/>
<path d="M217.902 80.7938H214.267L211.125 99.2035H207.759L210.9 80.7938H207.622L208.116 77.7874H211.392L212.425 71.8591H215.791L214.759 77.7874H218.396L217.902 80.7938ZM247.868 99.2035H244.501L245.04 96.0301C242.406 98.4799 239.384 99.7032 235.972 99.7032C233.01 99.7032 230.572 98.8401 228.656 97.1155C226.741 95.3892 225.785 93.1502 225.785 90.3937C225.785 86.8877 227.175 83.818 229.959 81.1881C232.742 78.5581 236.02 77.2439 239.789 77.2439C243.29 77.2439 245.863 78.537 247.51 81.1264L248.093 77.7874H251.548L247.868 99.2035ZM239.428 80.2925C236.794 80.2925 234.476 81.2676 232.471 83.2145C230.467 85.163 229.464 87.376 229.464 89.8518C229.464 91.8004 230.137 93.4277 231.484 94.7354C232.831 96.0447 234.551 96.6985 236.646 96.6985C239.189 96.6985 241.457 95.7104 243.445 93.7343C245.436 91.7582 246.43 89.5874 246.43 87.2219C246.43 85.2733 245.779 83.6314 244.478 82.2962C243.177 80.9609 241.493 80.2925 239.428 80.2925ZM277.337 99.2035H273.432L269.212 90.6046L261.896 99.2035H257.992L267.642 88.098L262.391 77.7874H266.295L270.11 85.5946L276.709 77.7874H280.704L271.727 88.0152L277.337 99.2035ZM294.644 74.4063H291.232L291.86 70.6487H295.272L294.644 74.4063ZM290.424 99.2035H287.012L290.647 77.7874H294.059L290.424 99.2035Z" fill="#03B8F1"/>
</g>
<defs>
<clipPath id="clip0_242_96">
<rect width="296.706" height="103" fill="white"/>
</clipPath>
</defs>
</svg>
